<svg width="302" height="137" viewBox="0 0 302 137" fill="none" xmlns="http://www.w3.org/2000/svg">
<path d="M53.956 26.0675C56.7849 26.0675 59.3755 26.2892 61.7117 26.7485C64.0638 27.2078 66.0186 27.6987 67.5761 28.253C69.1336 28.7914 70.119 29.2032 70.5004 29.5041L65.0333 39.6239C64.4453 39.1963 63.301 38.642 61.6005 37.9293C59.9158 37.2325 58.0405 36.8683 56.0062 36.8683C54.6553 36.8683 53.5587 37.0266 52.6846 37.3275C51.8105 37.6443 51.3814 38.1669 51.3814 38.927C51.3814 39.6872 51.89 40.2415 52.9071 40.7166C53.9242 41.1917 55.4658 41.6035 57.5319 41.9677C59.4072 42.332 61.378 42.9179 63.444 43.7573C65.5101 44.5966 67.2583 45.8478 68.6886 47.5423C70.119 49.221 70.8342 51.4857 70.8342 54.2888C70.8342 57.2978 70.1826 59.7525 68.8635 61.6213C67.5444 63.5059 65.8279 64.9629 63.7142 65.9923C61.6005 67.0217 59.3119 67.7343 56.8644 68.1302C54.4169 68.5262 52.0807 68.7162 49.8398 68.7162C46.55 68.7162 43.7211 68.4311 41.3213 67.861C38.9214 67.2909 37.0143 66.6416 35.584 65.9289C34.1536 65.2163 33.1841 64.6461 32.6597 64.2661L38.0314 53.0219C38.8897 53.7029 40.2723 54.4947 42.1954 55.3816C44.1184 56.2684 46.105 56.7119 48.1869 56.7119C50.0305 56.7119 51.4132 56.506 52.3508 56.0942C53.2885 55.6825 53.7494 55.1282 53.7494 54.3997C53.7494 53.8454 53.5269 53.3861 53.066 53.0219C52.6051 52.6576 51.9376 52.3409 51.0476 52.04C50.1576 51.7391 49.0452 51.4699 47.6943 51.2006C46.4864 50.9789 45.1355 50.583 43.6575 50.0445C42.1795 49.5061 40.7809 48.7459 39.4459 47.764C38.1109 46.7821 37.0143 45.531 36.1402 44.0107C35.2661 42.4903 34.837 40.6374 34.837 38.4361C34.837 35.6171 35.7588 33.305 37.6023 31.4837C39.4459 29.6625 41.8139 28.3163 44.7223 27.4136C47.6307 26.5109 50.7139 26.0675 53.956 26.0675Z" fill="white"/>
<path d="M94.4508 68.7321C89.9214 68.7321 85.9005 67.8293 82.3723 66.0239C78.86 64.2185 76.0947 61.7321 74.0922 58.5331C72.0897 55.334 71.0884 51.6757 71.0884 47.5106C71.0884 43.3455 72.0897 39.6714 74.0922 36.4407C76.0947 33.2099 78.86 30.676 82.3723 28.839C85.8846 26.986 89.9055 26.0675 94.4508 26.0675C98.9962 26.0675 102.938 26.986 106.402 28.839C109.867 30.6919 112.569 33.2258 114.523 36.4407C116.478 39.6714 117.448 43.3614 117.448 47.5106C117.448 51.6599 116.462 55.334 114.523 58.5331C112.585 61.7321 109.867 64.2185 106.402 66.0239C102.938 67.8293 98.9485 68.7321 94.4508 68.7321ZM94.4508 54.5422C95.8017 54.5422 96.9619 54.2571 97.9473 53.687C98.9326 53.1169 99.6796 52.2934 100.22 51.2006C100.744 50.1237 101.015 48.8568 101.015 47.4156C101.015 45.9745 100.744 44.7709 100.22 43.6781C99.6955 42.6012 98.9326 41.7618 97.9473 41.1442C96.9619 40.5424 95.8017 40.2415 94.4508 40.2415C93.1 40.2415 91.8921 40.5424 90.9068 41.1442C89.9214 41.746 89.1427 42.5854 88.5864 43.6781C88.0302 44.7709 87.7441 46.0061 87.7441 47.4156C87.7441 48.8251 88.0143 50.1237 88.5864 51.2006C89.1427 52.2775 89.9214 53.1011 90.9068 53.687C91.8921 54.2571 93.0682 54.5422 94.4508 54.5422Z" fill="white"/>
<path d="M142.685 55.239C144.259 55.239 145.594 54.954 146.675 54.3838C147.755 53.8137 148.518 53.3069 148.947 52.8793L156.83 64.567C156.242 65.0579 155.288 65.628 154.001 66.2773C152.698 66.9266 151.093 67.5126 149.17 67.9877C147.247 68.4787 145.053 68.7321 142.59 68.7321C137.568 68.7321 133.245 67.8293 129.606 66.0239C125.982 64.2185 123.185 61.7163 121.23 58.5173C119.275 55.3182 118.306 51.5965 118.306 47.3681C118.306 43.1397 119.291 39.3863 121.23 36.2031C123.169 33.0199 125.982 30.5177 129.606 28.7439C133.229 26.9544 137.568 26.0675 142.59 26.0675C144.99 26.0675 147.151 26.3051 149.09 26.7802C151.029 27.2553 152.682 27.8096 154.049 28.443C155.416 29.0765 156.385 29.6466 156.973 30.1376L148.9 41.8727C148.709 41.6827 148.327 41.3976 147.771 41.0175C147.215 40.6374 146.516 40.3049 145.673 40.004C144.831 39.7031 143.846 39.5605 142.685 39.5605C141.239 39.5605 139.936 39.9248 138.776 40.6374C137.616 41.3501 136.678 42.3003 135.995 43.4564C135.311 44.6125 134.962 45.9269 134.962 47.3523C134.962 48.7776 135.311 50.1079 135.995 51.2798C136.678 52.4517 137.616 53.402 138.776 54.1304C139.936 54.8589 141.239 55.2074 142.685 55.2074V55.239Z" fill="white"/>
<path d="M166.191 21.063C163.537 21.063 161.28 20.1287 159.421 18.2599C157.561 16.3912 156.639 14.174 156.639 11.5768C156.639 8.97951 157.561 6.74651 159.421 4.84608C161.28 2.94566 163.537 1.99545 166.191 1.99545C167.939 1.99545 169.528 2.42304 170.975 3.29407C172.421 4.1651 173.581 5.32119 174.471 6.76235C175.361 8.2035 175.806 9.80303 175.806 11.5768C175.806 14.1582 174.868 16.3912 172.977 18.2599C171.086 20.1287 168.829 21.063 166.207 21.063H166.191ZM157.275 67.5601V27.2553H174.662V67.5601H157.275Z" fill="white"/>
<path d="M209.944 67.5601V61.5263C209.61 62.1439 208.879 63.0466 207.719 64.2027C206.574 65.3588 205.049 66.4199 203.158 67.3384C201.266 68.2728 199.057 68.7321 196.53 68.7321C192.525 68.7321 189.061 67.7502 186.136 65.7864C183.212 63.8226 180.955 61.2254 179.366 57.9788C177.777 54.7323 176.982 51.2165 176.982 47.4156C176.982 43.6148 177.777 40.099 179.366 36.8524C180.955 33.6059 183.212 31.0086 186.136 29.029C189.061 27.0494 192.525 26.0517 196.53 26.0517C198.93 26.0517 201.028 26.4159 202.808 27.1286C204.604 27.8571 206.082 28.6964 207.242 29.6783C208.402 30.6602 209.229 31.5946 209.737 32.4814V27.2236H227.076V67.5285H209.928L209.944 67.5601ZM194.067 47.4315C194.067 48.8726 194.416 50.1871 195.1 51.3907C195.783 52.5784 196.721 53.5286 197.913 54.2096C199.105 54.8906 200.44 55.239 201.95 55.239C203.46 55.239 204.794 54.8906 205.971 54.2096C207.147 53.5286 208.052 52.5784 208.736 51.3907C209.419 50.2029 209.753 48.8726 209.753 47.4315C209.753 45.9903 209.419 44.6758 208.736 43.4722C208.068 42.2845 207.147 41.3343 205.971 40.6216C204.794 39.9089 203.46 39.5605 201.95 39.5605C200.44 39.5605 199.089 39.9089 197.913 40.6216C196.737 41.3343 195.799 42.2686 195.1 43.4722C194.416 44.66 194.067 45.9903 194.067 47.4315Z" fill="white"/>
<path d="M248.214 67.5601H230.732V0H248.214V67.5601Z" fill="white"/>
<path d="M0 74.2908H20.0567C26.6204 74.2908 32.0716 75.6053 36.4104 78.2183C40.7491 80.8314 44.0071 84.4581 46.1844 89.0666C48.3618 93.691 49.4425 98.9647 49.4425 104.919C49.4425 110.874 48.3618 116.195 46.1844 120.82C44.0071 125.444 40.7491 129.071 36.4104 131.699C32.0716 134.328 26.6204 135.659 20.0567 135.659H0V74.2908ZM16.2265 88.5598V121.374H18.6105C21.5983 121.374 24.0935 120.661 26.096 119.22C28.0985 117.779 29.6242 115.815 30.6731 113.345C31.722 110.858 32.2306 108.087 32.2306 105.03C32.2306 101.974 31.722 99.1389 30.689 96.6683C29.6559 94.1978 28.1302 92.2181 26.1119 90.7612C24.0935 89.3042 21.5824 88.5757 18.5946 88.5757H16.2106L16.2265 88.5598Z" fill="white"/>
<path d="M51.5085 74.2908H67.7351V135.643H51.5085V74.2908Z" fill="white"/>
<path d="M86.8064 89.0349L88.0143 89.2725V135.659H71.7877V74.3066H93.7992L116.049 120.598L114.889 120.835V74.3066H131.084V135.659H108.977L86.8223 89.0349H86.8064Z" fill="white"/>
<path d="M135.518 74.2908H151.744V135.643H135.518V74.2908Z" fill="white"/>
<path d="M170.832 89.0349L172.039 89.2725V135.659H155.813V74.3066H177.824L200.074 120.598L198.914 120.835V74.3066H215.109V135.659H193.002L170.847 89.0349H170.832Z" fill="white"/>
<path d="M249.247 100.976H280.73V105.062C280.73 109.528 279.999 113.677 278.537 117.494C277.075 121.326 274.961 124.684 272.212 127.582C269.462 130.48 266.172 132.729 262.342 134.344C258.512 135.96 254.253 136.767 249.564 136.767C244.876 136.767 240.283 135.96 236.358 134.328C232.432 132.697 229.079 130.433 226.266 127.534C223.453 124.636 221.291 121.263 219.781 117.399C218.272 113.535 217.525 109.385 217.525 104.919C217.525 100.453 218.272 96.3357 219.781 92.4874C221.291 88.6232 223.453 85.2499 226.266 82.3518C229.079 79.4536 232.448 77.2048 236.358 75.5894C240.283 73.9741 244.669 73.1664 249.564 73.1664C253.76 73.1664 257.431 73.6256 260.578 74.5442C263.725 75.4627 266.379 76.6505 268.572 78.1075C270.765 79.5645 272.593 81.1482 274.055 82.8744C275.517 84.6006 276.693 86.2318 277.599 87.7838L262.072 94.8946C261.039 93.1842 259.561 91.6638 257.638 90.286C255.715 88.9241 253.013 88.2431 249.564 88.2431C247.292 88.2431 245.226 88.6865 243.382 89.5734C241.539 90.4603 239.933 91.6638 238.598 93.2C237.263 94.7362 236.23 96.5099 235.515 98.5212C234.8 100.533 234.45 102.67 234.45 104.935C234.45 107.2 234.8 109.385 235.515 111.397C236.23 113.408 237.263 115.182 238.598 116.718C239.933 118.254 241.523 119.458 243.382 120.313C245.242 121.168 247.292 121.611 249.564 121.611C251.424 121.611 253.124 121.421 254.65 121.057C256.176 120.693 257.479 120.123 258.576 119.378C259.656 118.634 260.53 117.747 261.182 116.702C261.834 115.657 262.247 114.501 262.39 113.186H249.231V100.96L249.247 100.976Z" fill="white"/>
<path d="M292.427 136.767C289.884 136.767 287.691 135.865 285.88 134.043C284.068 132.238 283.146 130.052 283.146 127.519C283.146 124.985 284.052 122.704 285.88 120.899C287.691 119.093 289.884 118.175 292.427 118.175C294.97 118.175 297.211 119.077 299.023 120.899C300.835 122.72 301.756 124.921 301.756 127.519C301.756 130.116 300.85 132.238 299.023 134.043C297.211 135.865 295.002 136.767 292.427 136.767Z" fill="#B55725"/>
</svg>
